<svg width="500" height="500" viewBox="0 0 500 500" fill="none" xmlns="http://www.w3.org/2000/svg">
<path d="M421.875 93.75H78.125C73.981 93.75 70.0067 95.3962 67.0765 98.3265C64.1462 101.257 62.5 105.231 62.5 109.375V406.25C62.5 414.538 65.7924 422.487 71.6529 428.347C77.5134 434.208 85.462 437.5 93.75 437.5H171.875C180.163 437.5 188.112 434.208 193.972 428.347C199.833 422.487 203.125 414.538 203.125 406.25V312.5H296.875V343.75C296.875 352.038 300.167 359.987 306.028 365.847C311.888 371.708 319.837 375 328.125 375H406.25C414.538 375 422.487 371.708 428.347 365.847C434.208 359.987 437.5 352.038 437.5 343.75V109.375C437.5 105.231 435.854 101.257 432.924 98.3265C429.993 95.3962 426.019 93.75 421.875 93.75ZM171.875 406.25H93.75V250H171.875V406.25ZM171.875 218.75H93.75V125H171.875V218.75ZM296.875 281.25H203.125V125H296.875V281.25ZM406.25 343.75H328.125V250H406.25V343.75ZM406.25 218.75H328.125V125H406.25V218.75Z" fill="#F86161"/>
</svg>
