<svg width="1974" height="1391" viewBox="0 0 1974 1391" fill="none" xmlns="http://www.w3.org/2000/svg">
<g clip-path="url(#clip0_227_20)">
<path d="M437.421 139.338H311.535C299.432 139.349 287.829 144.161 279.271 152.719C270.713 161.277 265.9 172.881 265.889 184.983V321.462C264.28 321.366 262.67 321.222 261.084 321.03C231.261 317.892 202.907 306.485 179.22 288.096C155.532 269.706 137.453 245.065 127.021 216.95C116.589 188.836 114.218 158.366 120.176 128.976C126.135 99.5862 140.185 72.4453 160.743 50.6134C181.302 28.7815 207.55 13.1268 236.529 5.41434C265.509 -2.29812 296.066 -1.76163 324.757 6.96333C353.448 15.6883 379.13 32.2548 398.909 54.7949C418.689 77.335 431.778 104.952 436.701 134.533C436.965 136.119 437.205 137.728 437.421 139.338Z" fill="white"/>
<path d="M1923.55 134.533H311.535C298.159 134.548 285.335 139.868 275.877 149.326C266.419 158.784 261.099 171.607 261.085 184.983V1035.43C261.099 1048.8 266.419 1061.62 275.877 1071.08C285.335 1080.54 298.159 1085.86 311.535 1085.87H1923.55C1936.93 1085.86 1949.75 1080.54 1959.21 1071.08C1968.67 1061.62 1973.99 1048.8 1974 1035.43V184.983C1973.99 171.607 1968.67 158.784 1959.21 149.326C1949.75 139.868 1936.93 134.548 1923.55 134.533ZM1969.2 1035.43C1969.18 1047.53 1964.37 1059.13 1955.81 1067.69C1947.26 1076.25 1935.65 1081.06 1923.55 1081.07H311.535C299.432 1081.06 287.829 1076.25 279.271 1067.69C270.713 1059.13 265.9 1047.53 265.889 1035.43V184.983C265.9 172.881 270.713 161.277 279.271 152.719C287.829 144.161 299.432 139.349 311.535 139.338H1923.55C1935.65 139.349 1947.26 144.161 1955.81 152.719C1964.37 161.277 1969.18 172.881 1969.2 184.983V1035.43Z" fill="#3F3D56"/>
<path d="M1844.27 272.357H390.814C390.177 272.357 389.566 272.104 389.116 271.653C388.665 271.203 388.412 270.592 388.412 269.954C388.412 269.317 388.665 268.706 389.116 268.256C389.566 267.805 390.177 267.552 390.814 267.552H1844.27C1844.91 267.552 1845.52 267.805 1845.97 268.256C1846.42 268.706 1846.67 269.317 1846.67 269.954C1846.67 270.592 1846.42 271.203 1845.97 271.653C1845.52 272.104 1844.91 272.357 1844.27 272.357Z" fill="#3F3D56"/>
<path d="M801.626 982.573C800.989 982.573 800.378 982.32 799.927 981.869C799.477 981.419 799.223 980.807 799.223 980.17V189.788C799.223 189.151 799.477 188.54 799.927 188.089C800.378 187.639 800.989 187.385 801.626 187.385C802.263 187.385 802.874 187.639 803.325 188.089C803.775 188.54 804.028 189.151 804.028 189.788V980.17C804.028 980.807 803.775 981.419 803.325 981.869C802.874 982.32 802.263 982.573 801.626 982.573Z" fill="#3F3D56"/>
<path d="M1164.39 982.573C1163.75 982.573 1163.14 982.32 1162.69 981.869C1162.24 981.419 1161.99 980.807 1161.99 980.17V189.788C1161.99 189.151 1162.24 188.54 1162.69 188.089C1163.14 187.639 1163.75 187.385 1164.39 187.385C1165.03 187.385 1165.64 187.639 1166.09 188.089C1166.54 188.54 1166.79 189.151 1166.79 189.788V980.17C1166.79 980.807 1166.54 981.419 1166.09 981.869C1165.64 982.32 1165.03 982.573 1164.39 982.573Z" fill="#3F3D56"/>
<path d="M1527.15 982.573C1526.52 982.573 1525.9 982.32 1525.45 981.869C1525 981.419 1524.75 980.807 1524.75 980.17V189.788C1524.75 189.151 1525 188.54 1525.45 188.089C1525.9 187.639 1526.52 187.385 1527.15 187.385C1527.79 187.385 1528.4 187.639 1528.85 188.089C1529.3 188.54 1529.55 189.151 1529.55 189.788V980.17C1529.55 980.807 1529.3 981.419 1528.85 981.869C1528.4 982.32 1527.79 982.573 1527.15 982.573Z" fill="#3F3D56"/>
<path d="M568.39 520.325H480.606C477.74 520.322 474.992 519.182 472.965 517.155C470.938 515.128 469.798 512.38 469.795 509.514V405.925C469.798 403.058 470.938 400.31 472.965 398.284C474.992 396.257 477.74 395.117 480.606 395.114H568.39C571.256 395.117 574.004 396.257 576.031 398.284C578.057 400.31 579.197 403.058 579.201 405.925V509.514C579.197 512.38 578.057 515.128 576.031 517.155C574.004 519.182 571.256 520.322 568.39 520.325Z" fill="#F8B1B1"/>
<path d="M693.315 815.817H605.531C602.665 815.814 599.917 814.674 597.89 812.648C595.863 810.621 594.723 807.873 594.72 805.007V701.417C594.723 698.551 595.863 695.803 597.89 693.776C599.917 691.75 602.665 690.61 605.531 690.606H693.315C696.181 690.61 698.929 691.75 700.956 693.776C702.983 695.803 704.123 698.551 704.126 701.417V805.007C704.123 807.873 702.983 810.621 700.956 812.648C698.929 814.674 696.181 815.814 693.315 815.817Z" fill="#F8B1B1"/>
<path d="M976.799 582.787H889.015C886.149 582.783 883.401 581.643 881.374 579.617C879.348 577.59 878.208 574.842 878.204 571.976V468.386C878.208 465.52 879.348 462.772 881.374 460.746C883.401 458.719 886.149 457.579 889.015 457.576H976.799C979.665 457.579 982.413 458.719 984.44 460.746C986.467 462.772 987.607 465.52 987.61 468.386V571.976C987.607 574.842 986.467 577.59 984.44 579.617C982.413 581.643 979.665 582.783 976.799 582.787Z" fill="#F8B1B1"/>
<path d="M1344.37 469.875H1256.58C1253.72 469.872 1250.97 468.732 1248.94 466.705C1246.92 464.678 1245.78 461.93 1245.77 459.064V355.475C1245.78 352.608 1246.92 349.861 1248.94 347.834C1250.97 345.807 1253.72 344.667 1256.58 344.664H1344.37C1347.23 344.667 1349.98 345.807 1352.01 347.834C1354.03 349.861 1355.17 352.608 1355.18 355.475V459.064C1355.17 461.93 1354.03 464.678 1352.01 466.705C1349.98 468.732 1347.23 469.872 1344.37 469.875Z" fill="#F8B1B1"/>
<path d="M1683.11 469.875H1595.32C1592.46 469.872 1589.71 468.732 1587.68 466.705C1585.65 464.678 1584.52 461.93 1584.51 459.064V355.475C1584.52 352.608 1585.65 349.861 1587.68 347.834C1589.71 345.807 1592.46 344.667 1595.32 344.664H1683.11C1685.97 344.667 1688.72 345.807 1690.75 347.834C1692.77 349.861 1693.91 352.608 1693.92 355.475V459.064C1693.91 461.93 1692.77 464.678 1690.75 466.705C1688.72 468.732 1685.97 469.872 1683.11 469.875Z" fill="#F8B1B1"/>
<path d="M1839.26 498.703H1751.48C1748.61 498.7 1745.86 497.56 1743.84 495.533C1741.81 493.507 1740.67 490.759 1740.67 487.893V384.303C1740.67 381.437 1741.81 378.689 1743.84 376.662C1745.86 374.636 1748.61 373.496 1751.48 373.492H1839.26C1842.13 373.496 1844.88 374.636 1846.9 376.662C1848.93 378.689 1850.07 381.437 1850.07 384.303V487.893C1850.07 490.759 1848.93 493.507 1846.9 495.534C1844.88 497.56 1842.13 498.7 1839.26 498.703Z" fill="white"/>
<path d="M1769.59 683.687H1681.81C1678.94 683.683 1676.2 682.543 1674.17 680.517C1672.14 678.49 1671 675.742 1671 672.876V569.286C1671 566.42 1672.14 563.672 1674.17 561.645C1676.2 559.619 1678.94 558.479 1681.81 558.476H1769.59C1772.46 558.479 1775.21 559.619 1777.23 561.645C1779.26 563.672 1780.4 566.42 1780.4 569.286V672.876C1780.4 675.742 1779.26 678.49 1777.23 680.517C1775.21 682.543 1772.46 683.683 1769.59 683.687Z" fill="white"/>
<path d="M1471.69 645.249H1383.91C1381.04 645.245 1378.3 644.105 1376.27 642.079C1374.24 640.052 1373.1 637.304 1373.1 634.438V530.848C1373.1 527.982 1374.24 525.234 1376.27 523.208C1378.3 521.181 1381.04 520.041 1383.91 520.038H1471.69C1474.56 520.041 1477.31 521.181 1479.34 523.208C1481.36 525.234 1482.5 527.982 1482.51 530.848V634.438C1482.5 637.304 1481.36 640.052 1479.34 642.079C1477.31 644.105 1474.56 645.245 1471.69 645.249Z" fill="#FF6584"/>
<path d="M1301.12 683.687H1213.34C1210.47 683.683 1207.73 682.543 1205.7 680.517C1203.67 678.49 1202.53 675.742 1202.53 672.876V569.286C1202.53 566.42 1203.67 563.672 1205.7 561.645C1207.73 559.619 1210.47 558.479 1213.34 558.476H1301.12C1303.99 558.479 1306.74 559.619 1308.76 561.645C1310.79 563.672 1311.93 566.42 1311.93 569.286V672.876C1311.93 675.742 1310.79 678.49 1308.76 680.517C1306.74 682.543 1303.99 683.683 1301.12 683.687Z" fill="white"/>
<path d="M933.556 847.048H845.772C842.906 847.045 840.158 845.905 838.131 843.878C836.104 841.852 834.964 839.104 834.961 836.238V732.648C834.964 729.782 836.104 727.034 838.131 725.007C840.158 722.98 842.906 721.841 845.772 721.837H933.556C936.422 721.841 939.17 722.98 941.197 725.007C943.223 727.034 944.363 729.782 944.367 732.648V836.238C944.363 839.104 943.223 841.852 941.197 843.878C939.17 845.905 936.422 847.045 933.556 847.048Z" fill="white"/>
<path d="M489.11 710.113H401.326C398.46 710.11 395.712 708.97 393.686 706.943C391.659 704.916 390.519 702.168 390.516 699.302V595.712C390.519 592.846 391.659 590.098 393.686 588.072C395.712 586.045 398.46 584.905 401.326 584.902H489.11C491.977 584.905 494.725 586.045 496.751 588.072C498.778 590.098 499.918 592.846 499.921 595.712V699.302C499.918 702.168 498.778 704.916 496.751 706.943C494.725 708.97 491.977 710.11 489.11 710.113Z" fill="#FF6584"/>
<path d="M736.558 520.325H648.774C645.908 520.322 643.16 519.182 641.133 517.155C639.107 515.128 637.967 512.38 637.964 509.514V405.925C637.967 403.058 639.107 400.31 641.133 398.284C643.16 396.257 645.908 395.117 648.774 395.114H736.558C739.424 395.117 742.172 396.257 744.199 398.284C746.226 400.31 747.366 403.058 747.369 405.925V509.514C747.366 512.38 746.226 515.128 744.199 517.155C742.172 519.182 739.424 520.322 736.558 520.325Z" fill="white"/>
<path d="M664.689 233.031H527.752C525.203 233.031 522.759 232.018 520.957 230.216C519.154 228.414 518.142 225.97 518.142 223.421C518.142 220.873 519.154 218.428 520.957 216.626C522.759 214.824 525.203 213.812 527.752 213.812H664.689C667.237 213.812 669.682 214.824 671.484 216.626C673.286 218.428 674.298 220.873 674.298 223.421C674.298 225.97 673.286 228.414 671.484 230.216C669.682 232.018 667.237 233.031 664.689 233.031Z" fill="white"/>
<path d="M1051.48 233.031H914.539C911.99 233.031 909.546 232.018 907.744 230.216C905.942 228.414 904.929 225.97 904.929 223.421C904.929 220.873 905.942 218.428 907.744 216.626C909.546 214.824 911.99 213.812 914.539 213.812H1051.48C1054.02 213.812 1056.47 214.824 1058.27 216.626C1060.07 218.428 1061.09 220.873 1061.09 223.421C1061.09 225.97 1060.07 228.414 1058.27 230.216C1056.47 232.018 1054.02 233.031 1051.48 233.031Z" fill="white"/>
<path d="M1414.24 233.031H1277.3C1274.75 233.031 1272.31 232.018 1270.51 230.216C1268.71 228.414 1267.69 225.97 1267.69 223.421C1267.69 220.873 1268.71 218.428 1270.51 216.626C1272.31 214.824 1274.75 213.812 1277.3 213.812H1414.24C1416.79 213.812 1419.23 214.824 1421.03 216.626C1422.84 218.428 1423.85 220.873 1423.85 223.421C1423.85 225.97 1422.84 228.414 1421.03 230.216C1419.23 232.018 1416.79 233.031 1414.24 233.031Z" fill="white"/>
<path d="M1752.98 233.031H1616.04C1613.49 233.031 1611.05 232.018 1609.25 230.216C1607.44 228.414 1606.43 225.97 1606.43 223.421C1606.43 220.873 1607.44 218.428 1609.25 216.626C1611.05 214.824 1613.49 213.812 1616.04 213.812H1752.98C1755.53 213.812 1757.97 214.824 1759.77 216.626C1761.58 218.428 1762.59 220.873 1762.59 223.421C1762.59 225.97 1761.58 228.414 1759.77 230.216C1757.97 232.018 1755.53 233.031 1752.98 233.031Z" fill="white"/>
<path d="M357.981 936.666C354.466 936.322 351.069 935.211 348.03 933.413C344.991 931.614 342.383 929.17 340.39 926.254C338.397 923.338 337.068 920.021 336.496 916.536C335.924 913.051 336.123 909.483 337.08 906.083L275.499 848.76L308.058 840.5L368.613 889.614C374.218 891.599 378.9 895.571 381.772 900.777C384.644 905.983 385.507 912.063 384.196 917.862C382.886 923.662 379.493 928.78 374.661 932.246C369.83 935.711 363.895 937.284 357.981 936.666Z" fill="#FFB8B8"/>
<path d="M443.013 1360.35H472.467L486.478 1246.75H443.008L443.013 1360.35Z" fill="#FFB8B8"/>
<path d="M529.269 1387.7L436.703 1387.7L436.701 1351.94L493.503 1351.94C502.989 1351.94 512.086 1355.7 518.793 1362.41C525.501 1369.12 529.269 1378.21 529.269 1387.7Z" fill="#2F2E41"/>
<path d="M241.069 1339.09L269.533 1346.67L312.298 1240.49L270.292 1229.31L241.069 1339.09Z" fill="#FFB8B8"/>
<path d="M317.389 1387.71L227.937 1363.9L237.137 1329.34L292.027 1343.95C301.194 1346.39 309.015 1352.37 313.771 1360.58C318.527 1368.78 319.829 1378.54 317.389 1387.71Z" fill="#2F2E41"/>
<path d="M480.387 1338.84H435.445C432.606 1338.85 429.866 1337.8 427.765 1335.89C425.664 1333.98 424.353 1331.36 424.091 1328.53L396.808 1045.22C396.608 1043.14 395.692 1041.19 394.217 1039.72C392.742 1038.24 390.799 1037.32 388.721 1037.12C386.643 1036.91 384.559 1037.44 382.826 1038.6C381.093 1039.77 379.818 1041.5 379.22 1043.5L300.005 1308.24C299.167 1311.05 297.275 1313.43 294.724 1314.89C292.172 1316.34 289.159 1316.75 286.311 1316.04L244.502 1305.58C243.042 1305.22 241.67 1304.57 240.463 1303.67C239.255 1302.77 238.238 1301.65 237.468 1300.35C236.698 1299.06 236.192 1297.63 235.977 1296.14C235.763 1294.65 235.846 1293.14 236.22 1291.68C236.903 1289.01 304.474 1024.95 305.064 1022.23C320.374 909.399 338.69 879.163 348.531 862.921C349.345 861.576 350.094 860.34 350.768 859.172C351.611 857.71 356.804 843.209 360.097 833.792C360.525 832.26 361.266 830.833 362.273 829.602C363.28 828.371 364.531 827.362 365.947 826.639C407.295 805.493 455.671 820.131 469.513 825.121C471.808 825.929 473.779 827.459 475.13 829.482C516.655 892.115 496.277 1255.88 491.77 1328.17C491.582 1331.06 490.302 1333.77 488.188 1335.76C486.074 1337.74 483.285 1338.84 480.387 1338.84Z" fill="#2F2E41"/>
<path d="M364.407 621.22C396.995 621.22 423.412 594.802 423.412 562.215C423.412 529.627 396.995 503.21 364.407 503.21C331.819 503.21 305.401 529.627 305.401 562.215C305.401 594.802 331.819 621.22 364.407 621.22Z" fill="#FFB8B8"/>
<path d="M358.155 845.248L357.731 844.837C356.936 844.067 278.318 767.048 288.492 695.831C292.844 665.37 317.49 645.907 359.766 639.542C375.297 637.235 391.139 640.612 404.38 649.051C417.621 657.49 427.371 670.425 431.838 685.478L473.639 828.382L358.155 845.248Z" fill="white"/>
<path d="M317.917 900.028L261.897 844.363C258.066 840.535 255.285 835.786 253.821 830.573C252.357 825.359 252.259 819.856 253.537 814.594L280.657 704.279C281.469 700.974 282.951 697.87 285.012 695.16C287.072 692.451 289.666 690.193 292.634 688.526C295.603 686.859 298.881 685.82 302.267 685.471C305.653 685.123 309.075 685.473 312.32 686.501C318.506 688.495 323.673 692.818 326.726 698.555C329.779 704.292 330.48 710.992 328.678 717.237L300.127 814.284L346.297 863.862L317.917 900.028Z" fill="white"/>
<path d="M618.39 710.053C616.908 713.259 614.742 716.101 612.044 718.379C609.345 720.658 606.18 722.317 602.771 723.24C599.362 724.162 595.792 724.326 592.313 723.72C588.833 723.114 585.529 721.752 582.633 719.731L507.847 758.492L511.153 725.566L577.452 684.536C581.17 679.896 586.461 676.78 592.322 675.781C598.184 674.781 604.209 675.966 609.255 679.111C614.301 682.256 618.018 687.143 619.702 692.846C621.385 698.549 620.918 704.671 618.39 710.053Z" fill="#FFB8B8"/>
<path d="M574.466 734.562L501.562 766.066C496.709 768.146 491.403 768.943 486.154 768.38C480.904 767.817 475.888 765.913 471.587 762.85L378.881 696.427C376.114 694.444 373.783 691.915 372.033 688.996C370.283 686.076 369.151 682.828 368.707 679.454C368.262 676.079 368.515 672.649 369.45 669.376C370.384 666.103 371.98 663.057 374.14 660.425C378.289 655.423 384.223 652.232 390.684 651.529C397.145 650.825 403.627 652.665 408.755 656.658L488.247 719.221L551.431 694.776L574.466 734.562Z" fill="white"/>
<path d="M374.189 581.122C381.468 572.002 395.068 571.511 405.067 565.495C418.164 557.615 423.579 540.004 419.358 525.313C415.138 510.622 402.69 499.173 388.419 493.697C374.148 488.221 358.27 488.154 343.216 490.801C320.801 494.742 298.733 505.203 285.062 523.398C271.391 541.593 267.912 568.241 280.302 587.331C285.996 596.106 294.786 603.348 297.059 613.558C300.044 626.963 290.642 639.891 280.569 649.224C269.093 659.858 255.927 668.764 245.873 680.75C235.82 692.737 229.115 709.113 233.703 724.07C237.547 736.602 248.732 745.835 260.998 750.458C273.263 755.082 286.622 755.75 299.727 756.006C312.453 756.255 325.97 755.946 336.691 749.084C348.167 741.739 354.295 727.803 354.748 714.185C355.201 700.566 350.65 687.224 344.551 675.039C340.915 667.776 336.688 660.739 334.273 652.985C331.857 645.231 331.439 636.432 335.307 629.291C339.374 621.784 347.6 617.257 355.978 615.611C356.413 615.526 356.873 615.449 357.355 615.381C359.739 615.072 362.035 614.283 364.104 613.061C366.174 611.839 367.974 610.21 369.397 608.273C370.819 606.335 371.834 604.129 372.379 601.789C372.924 599.448 372.989 597.021 372.57 594.654C371.616 589.335 371.698 584.243 374.189 581.122Z" fill="#2F2E41"/>
<path d="M1160.91 1362.87H1131.46L1117.45 1249.27L1160.92 1249.27L1160.91 1362.87Z" fill="#A0616A"/>
<path d="M1110.42 1354.45H1167.22V1390.22H1074.66C1074.66 1385.52 1075.58 1380.87 1077.38 1376.53C1079.18 1372.19 1081.81 1368.25 1085.13 1364.93C1088.45 1361.61 1092.4 1358.97 1096.73 1357.18C1101.07 1355.38 1105.72 1354.45 1110.42 1354.45Z" fill="#2F2E41"/>
<path d="M1374.62 1329.51L1347.83 1341.74L1287.88 1244.23L1327.42 1226.17L1374.62 1329.51Z" fill="#A0616A"/>
<path d="M1325.2 1342.83L1376.86 1319.23L1391.72 1351.76L1307.52 1390.22C1305.57 1385.95 1304.48 1381.33 1304.31 1376.64C1304.14 1371.95 1304.9 1367.26 1306.54 1362.86C1308.19 1358.46 1310.68 1354.43 1313.88 1350.99C1317.08 1347.55 1320.92 1344.78 1325.2 1342.83Z" fill="#2F2E41"/>
<path d="M1288.85 979.827C1291.67 977.703 1293.99 974.986 1295.65 971.868C1297.31 968.75 1298.26 965.306 1298.45 961.779C1298.63 958.253 1298.04 954.728 1296.71 951.455C1295.38 948.181 1293.36 945.239 1290.77 942.834L1325.39 864.276L1281.41 871.73L1255.27 945.187C1251.52 949.8 1249.59 955.628 1249.85 961.569C1250.11 967.509 1252.54 973.149 1256.67 977.418C1260.81 981.688 1266.37 984.292 1272.3 984.736C1278.23 985.179 1284.12 983.433 1288.85 979.827Z" fill="#A0616A"/>
<path d="M1159.03 1332.91H1130.9C1128.17 1332.91 1125.54 1331.87 1123.55 1330.01C1121.55 1328.15 1120.32 1325.61 1120.12 1322.89L1104.77 913.141C1104.66 911.571 1104.89 909.995 1105.45 908.523C1106 907.051 1106.88 905.719 1108 904.62C1109.13 903.52 1110.48 902.68 1111.97 902.159C1113.46 901.637 1115.04 901.446 1116.6 901.599L1279.33 918.88C1281.97 919.138 1284.42 920.355 1286.22 922.301C1288.02 924.247 1289.04 926.785 1289.09 929.435L1292.5 1110.18C1292.52 1111.16 1292.71 1112.13 1293.06 1113.05L1359.81 1286.14C1360.33 1287.48 1360.57 1288.91 1360.53 1290.34C1360.49 1291.77 1360.17 1293.18 1359.58 1294.49C1358.98 1295.79 1358.14 1296.97 1357.09 1297.95C1356.04 1298.92 1354.81 1299.68 1353.46 1300.18L1324.95 1310.68C1322.47 1311.59 1319.75 1311.57 1317.29 1310.61C1314.83 1309.65 1312.81 1307.83 1311.6 1305.48L1229.6 1146.04C1229.15 1145.17 1228.83 1144.25 1228.63 1143.29L1214.62 1075.8C1214.21 1073.84 1213.12 1072.1 1211.55 1070.87C1209.97 1069.64 1208 1069.02 1206.01 1069.11C1204.01 1069.2 1202.11 1070 1200.65 1071.36C1199.19 1072.73 1198.26 1074.57 1198.03 1076.55L1169.78 1323.33C1169.47 1325.97 1168.21 1328.4 1166.23 1330.17C1164.25 1331.94 1161.69 1332.92 1159.03 1332.91Z" fill="#2F2E41"/>
<path d="M1173.05 592.76C1205.63 592.76 1232.05 566.343 1232.05 533.755C1232.05 501.168 1205.63 474.75 1173.05 474.75C1140.46 474.75 1114.04 501.168 1114.04 533.755C1114.04 566.343 1140.46 592.76 1173.05 592.76Z" fill="#A0616A"/>
<path d="M1213.51 950.607C1173.5 950.167 1134.44 938.335 1100.9 916.498L1100.33 916.101L1100.39 915.406L1122.96 652.547C1123.74 643.629 1127.72 635.295 1134.16 629.085C1140.61 622.875 1149.09 619.209 1158.03 618.766C1187.28 617.422 1226.57 619.117 1247.61 634.782C1279.39 658.456 1294.71 694.106 1289.64 732.588C1279.12 812.392 1291.04 920.044 1292.43 932.056L1292.53 932.922L1291.74 933.285C1267.23 944.685 1240.54 950.597 1213.51 950.607Z" fill="#F8B1B1"/>
<path d="M1292.16 932.502C1290.49 932.499 1288.85 932.151 1287.33 931.48C1285.81 930.809 1284.44 929.83 1283.32 928.605L1270.41 914.524C1269.01 912.993 1268.04 911.13 1267.57 909.113C1267.1 907.095 1267.16 904.992 1267.74 903.004L1297.17 803.393L1252.39 709.355C1250.3 704.953 1249.79 699.966 1250.94 695.23C1251.96 691.074 1254.21 687.323 1257.4 684.473C1260.59 681.623 1264.58 679.807 1268.82 679.264C1273.06 678.722 1277.37 679.479 1281.18 681.436C1284.98 683.392 1288.11 686.457 1290.13 690.224L1350.9 788.822C1353.37 792.822 1354.82 797.367 1355.12 802.058C1355.42 806.749 1354.57 811.442 1352.63 815.725L1303.12 925.429C1302.3 927.243 1301.05 928.825 1299.47 930.033C1297.89 931.24 1296.03 932.036 1294.07 932.348C1293.44 932.45 1292.8 932.501 1292.16 932.502Z" fill="#F8B1B1"/>
<path d="M876.248 742.221C879.082 744.329 882.344 745.789 885.803 746.5C889.262 747.211 892.836 747.155 896.271 746.336C899.707 745.516 902.92 743.953 905.687 741.758C908.453 739.562 910.704 736.786 912.281 733.626L997.417 744.668L977.852 704.576L900.004 700.237C894.52 697.939 888.383 697.733 882.757 699.657C877.131 701.581 872.406 705.503 869.478 710.678C866.55 715.853 865.622 721.922 866.87 727.736C868.117 733.549 871.454 738.703 876.248 742.221Z" fill="#A0616A"/>
<path d="M1063.9 764.117C1062.42 764.117 1060.94 764.015 1059.47 763.811L925.536 745.235C923.347 744.934 921.267 744.093 919.485 742.788C917.702 741.483 916.272 739.755 915.324 737.76C915.017 737.117 914.762 736.451 914.56 735.768C914.042 733.994 913.896 732.133 914.134 730.3C914.372 728.468 914.987 726.704 915.941 725.122L927.024 706.746C928.217 704.782 929.894 703.157 931.894 702.027C933.895 700.898 936.152 700.3 938.45 700.293H938.468L1055.22 700.427L1142.41 622.309C1146.46 618.683 1151.65 616.562 1157.08 616.304C1161.85 616.083 1166.58 617.313 1170.64 619.833C1174.7 622.353 1177.89 626.044 1179.81 630.418C1181.73 634.793 1182.28 639.647 1181.38 644.339C1180.48 649.031 1178.19 653.341 1174.79 656.701L1087.79 753.465C1084.78 756.817 1081.09 759.498 1076.98 761.333C1072.86 763.168 1068.41 764.117 1063.9 764.117Z" fill="#F8B1B1"/>
<path d="M1179.75 586.248C1185.15 573.768 1189.71 557.149 1179.37 548.326C1173.37 543.208 1164.73 543.197 1156.87 542.561C1134.72 540.767 1111.93 530.578 1101.1 511.177C1090.28 491.776 1096.33 462.927 1116.74 454.173C1130.51 448.273 1146.29 452.293 1160.7 456.378L1203.95 468.644C1216.81 472.289 1230.3 476.308 1239.55 485.945C1254.31 501.314 1253.21 527.294 1241.49 545.087C1229.77 562.88 1212.11 581.437 1191.91 588.192L1179.75 586.248Z" fill="#2F2E41"/>
<path d="M1776.54 1391H2.86053C2.48419 1391 2.11134 1390.93 1.76333 1390.78C1.41532 1390.64 1.09902 1390.43 0.832513 1390.17C0.566011 1389.9 0.354557 1389.58 0.210284 1389.24C0.0660101 1388.89 -0.00827026 1388.52 -0.00827026 1388.14C-0.00827026 1387.76 0.0660101 1387.39 0.210284 1387.04C0.354557 1386.7 0.566011 1386.38 0.832513 1386.11C1.09902 1385.85 1.41532 1385.64 1.76333 1385.49C2.11134 1385.35 2.48419 1385.28 2.86053 1385.28H1776.54C1776.92 1385.28 1777.29 1385.35 1777.64 1385.49C1777.99 1385.64 1778.3 1385.85 1778.57 1386.11C1778.84 1386.38 1779.05 1386.7 1779.19 1387.04C1779.34 1387.39 1779.41 1387.76 1779.41 1388.14C1779.41 1388.52 1779.34 1388.89 1779.19 1389.24C1779.05 1389.58 1778.84 1389.9 1778.57 1390.17C1778.3 1390.43 1777.99 1390.64 1777.64 1390.78C1777.29 1390.93 1776.92 1391 1776.54 1391Z" fill="#3F3D56"/>
</g>
<defs>
<clipPath id="clip0_227_20">
<rect width="1974" height="1391" fill="white"/>
</clipPath>
</defs>
</svg>
